<?xml version="1.0" standalone="no"?>
<!DOCTYPE svg PUBLIC "-//W3C//DTD SVG 20010904//EN"
 "http://www.w3.org/TR/2001/REC-SVG-20010904/DTD/svg10.dtd">
<svg version="1.0" xmlns="http://www.w3.org/2000/svg" width="700.000000pt" height="700.000000pt" viewBox="0 0 700.000000 700.000000" preserveAspectRatio="xMidYMid meet">
  <path d="M276.5 12.2c-4.2 13.4-6.8 21.6-14 43.8-2.5 8-6.1 19.2-8 25-1.8 5.8-5.1 16.1-7.3 23-2.2 6.9-9.3 28.9-15.7 49-15.6 48.9-27.3 85.5-29.2 91-.8 2.5-3 9.2-4.8 15-1.8 5.8-4.9 15.4-6.8 21.5-1.9 6-9 28.1-15.6 49-6.7 20.9-12.6 39.1-13.1 40.5-.5 1.4-3.9 11.9-7.5 23.5-6.3 19.8-9.6 30-20 62.5-2.4 7.4-7.8 24.3-12 37.5s-10 31.4-13 40.5c-2.9 9.1-7.8 24.6-11 34.5-3.1 9.9-6 19.1-6.5 20.5-.5 1.4-4.5 14-9 28-12.2 38.1-23 72-24.6 76.8-.8 2.3-1.4 4.7-1.4 5.2 0 .7 32.4.9 90.2.8l90.1-.3.8-2.5c.4-1.4 4.4-13.8 8.8-27.5 30.3-95.1 28.9-90.5 31.2-97.5 1.8-5.4 15.2-47.4 21.1-66 1.6-5.2 5.2-16.3 7.8-24.5 2.7-8.3 8.3-25.8 12.5-39 4.2-13.2 9.2-28.7 11-34.5 1.9-5.8 5.6-17.5 8.4-26 2.7-8.5 8.6-27 13.1-41s11.9-37.2 16.5-51.5c4.5-14.3 11.3-35.5 15-47 3.6-11.6 7.7-24.2 9-28 1.3-3.9 4.4-13.8 7-22 2.6-8.3 5.5-17.5 6.6-20.5 1-3 5.2-16.3 9.4-29.5s8.2-25.8 9-28c.7-2.2 3.9-12.1 7.1-22 3.1-9.9 7-22.1 8.6-27 1.6-5 3.1-9.5 3.2-10 .3-1.2 10.7-33.9 14.7-45.8 1.6-4.9 2.9-9.1 2.9-9.3 0-.2-40.6-.4-90.3-.4h-90.4l-3.8 12.2zM538.8 11.2c-6.4 19.8-14.5 45-17.6 54.8-9 28.6-17.7 55.2-19.5 60.5l-2.2 6-.5 216-.5 216H361.7L358 576c-5.7 17.7-15.1 47.3-22.5 70.5-3.7 11.6-8.9 27.8-11.6 36-2.7 8.3-4.9 15.6-4.9 16.3 0 .9 35.3 1.1 157.8 1l157.7-.3V0h-92.1l-3.6 11.2z"/>
</svg>
